<?xml version="1.0" encoding="UTF-8"?>
<svg width="156px" height="200px" viewBox="0 0 156 200" version="1.1" xmlns="http://www.w3.org/2000/svg" xmlns:xlink="http://www.w3.org/1999/xlink">

    <g stroke="none" stroke-width="1" fill="none" fill-rule="evenodd">
        <g fill="#155F6F" fill-rule="nonzero">
            <path d="M152.47181,90.6092593 C150.081557,88.1540123 146.741739,86.857716 143.328854,87.0447531 L102.022458,89.3466049 L124.754372,63.4283951 C127.992759,59.7364198 128.917968,54.8148148 127.66596,50.4169753 C127.005273,47.4033951 125.182292,44.6614198 122.381692,42.9095679 C122.295676,42.8481481 68.0446719,11.2975309 68.0446719,11.2975309 C63.6147036,8.7212963 58.0326166,9.28888889 54.2096917,12.7024691 L27.7088063,36.3679012 C22.826253,40.7277778 22.3986403,48.2246914 26.754,53.112963 C31.109668,58.0006173 38.5985929,58.4299383 43.4808379,54.0685185 L63.5721581,36.1268519 L80.1815336,45.782716 L50.8633992,79.2101852 C38.7061897,81.1950617 27.7676917,86.8033951 19.1809091,94.8895062 L34.4911067,110.216667 C41.4121423,103.916667 50.6016522,100.071296 60.6713597,100.071296 C82.1497233,100.071296 99.6238814,117.565123 99.6238814,139.067593 C99.6238814,149.148457 95.7827668,158.347531 89.4903557,165.276235 L104.799628,180.603395 C114.998206,169.749691 121.25732,155.14537 121.25732,139.067593 C121.25732,129.488889 119.036016,120.430556 115.086379,112.375617 L131.075146,111.483951 L127.185628,159.246296 C126.65381,165.774691 131.510158,171.49784 138.031636,172.030864 C138.358126,172.057407 138.684,172.070062 139.006791,172.070062 C145.112988,172.070062 150.297059,167.37284 150.801439,161.173148 L155.793747,99.8506173 C156.072451,96.433642 154.86083,93.0638889 152.47181,90.6092593 Z"></path>
            <path d="M130.529455,39.8040123 C141.481209,39.8040123 150.358411,30.9160494 150.358411,19.9515432 C150.358411,8.98765432 141.481209,0.0987654321 130.529455,0.0987654321 C119.576466,0.0987654321 110.698648,8.98765432 110.698648,19.9515432 C110.698648,30.9160494 119.576158,39.8040123 130.529455,39.8040123 Z"></path>
            <path d="M60.671668,178.06358 C39.192996,178.06358 21.7185296,160.569753 21.7185296,139.067284 C21.7185296,130.96358 24.2021976,123.431481 28.4447194,117.18858 L12.9692727,101.696296 C4.90567589,111.99784 0.0850909091,124.965741 0.0850909091,139.067284 C0.0850909091,172.565741 27.2102846,199.720679 60.671668,199.720679 C74.7582213,199.720679 87.7105375,194.894753 98.0003715,186.821914 L82.5252332,171.330247 C76.2895494,175.576235 68.7657866,178.06358 60.671668,178.06358 Z"></path>
        </g>
    </g>
</svg>